<svg id="Capa_1" enable-background="new 0 0 512 512" height="512" viewBox="0 0 512 512" width="512" xmlns="http://www.w3.org/2000/svg"><g><g><g><path d="m405.368 324.483v159.486c0 5.602-4.547 10.149-10.149 10.149h-71.883v-69.762h-233.692v69.762h-71.883c-5.602 0-10.149-4.547-10.149-10.149v-159.486c0-57.543 46.643-104.186 104.186-104.186h189.384c57.543 0 104.186 46.643 104.186 104.186z" fill="#64b9fc"/><path d="m405.368 324.483v159.486c0 5.605-4.544 10.149-10.149 10.149h-31.786v-131.902c0-16.644-14.594-29.532-31.106-27.462l-103.364 12.919c-4.8 5.744-11.681 9.712-19.567 10.707l-79.312 9.915c-17.577 3.177-30.294 18.379-30.294 36.281v89.541h-82.029c-5.605 0-10.149-4.544-10.149-10.149v-159.485c0-57.54 46.646-104.186 104.186-104.186h189.384c57.541 0 104.186 46.646 104.186 104.186z" fill="#31a7fb"/><g><path d="m333.485 391.626v102.491h-15.223v-102.491c0-4.202 3.41-7.611 7.611-7.611 4.202 0 7.612 3.41 7.612 7.611z" fill="#31a7fb"/></g><path d="m79.495 414.207h253.99v79.91h-253.99z" fill="#eaf6ff"/><path d="m79.495 414.207h20.297v79.91h-20.297z" fill="#cbe5e7"/><path d="m298.564 414.208h34.923v79.914h-34.923z" fill="#cbe5e7"/><g><g><g><g><g><g><circle cx="309.483" cy="186.458" fill="#fdb0a0" r="35.434"/></g><g><circle cx="103.492" cy="186.458" fill="#fdb0a0" r="35.434"/></g></g></g></g></g><path d="m308.646 129.08v73.789c0 56.34-45.053 103.016-101.393 103.438-56.776.409-102.934-45.476-102.934-102.157v-75.07c0-56.422 45.748-102.157 102.17-102.157 28.218 0 53.75 11.437 72.235 29.922 18.485 18.498 29.922 44.03 29.922 72.235z" fill="#ffcec0"/><path d="m305.529 103.962c-14.95 19.955-38.445 31.707-63.905 31.707h-70.3c-25.46 0-48.927-11.752-63.886-31.688 11.178-44.284 51.291-77.056 99.05-77.056 28.222 0 53.756 11.437 72.237 29.918 12.799 12.817 22.225 28.999 26.804 47.119z" fill="#fdb0a0"/><path d="m308.645 129.084v13.898h-11.336c-7.885 0-15.004-4.888-17.642-12.31-6.448-18.19-25.329-27.91-25.329-27.91h-100.425s-18.881 9.719-25.329 27.91c-2.638 7.422-9.766 12.31-17.642 12.31h-6.628v-13.898c0-56.425 45.75-102.165 102.175-102.165 28.222 0 53.749 11.44 72.232 29.923 18.484 18.502 29.924 44.029 29.924 72.242z" fill="#7da2b0"/><g><g><path d="m171.32 117.129h70.307c20.822 0 40.372-10.423 51.628-27.94.76-1.182 1.494-2.374 2.202-3.576 4.553-7.727 4.1-17.478-1.368-24.586-2.921-3.797-6.085-7.398-9.466-10.78-19.993-19.993-47.606-32.368-78.133-32.368-35.674 0-67.404 16.906-87.61 43.144-5.473 7.107-5.928 16.861-1.375 24.589.709 1.203 1.443 2.397 2.204 3.58 11.252 17.514 30.794 27.937 51.611 27.937z" fill="#3f5959"/></g><g><path d="m295.454 85.611c-.704 1.205-1.437 2.391-2.197 3.578-11.261 17.517-30.808 27.944-51.634 27.944h-28.435c20.826 0 40.373-10.427 51.624-27.944.76-1.186 1.492-2.373 2.206-3.578 4.551-7.72 4.097-17.48-1.372-24.58-2.92-3.8-6.08-7.405-9.463-10.788-16.84-16.84-39.075-28.268-63.914-31.457 4.653-.602 9.398-.908 14.218-.908 30.53 0 58.14 12.373 78.132 32.365 3.383 3.383 6.553 6.988 9.472 10.788 5.469 7.1 5.923 16.859 1.363 24.58z" fill="#384848"/></g></g><g><path d="m149.205 208.083c-3.108 0-6.025-1.917-7.151-5.005-1.441-3.949.594-8.319 4.543-9.759l9.861-3.596-11.935-9.308c-3.315-2.586-3.906-7.369-1.321-10.683 2.585-3.315 7.368-3.906 10.683-1.321l12.598 9.826c4.228 3.299 6.336 8.638 5.5 13.935-.835 5.296-4.483 9.727-9.521 11.564l-10.651 3.885c-.859.313-1.74.462-2.606.462z" fill="#c86f5c"/></g><g><path d="m263.773 208.083c-.866 0-1.747-.149-2.608-.463l-10.652-3.885c-5.037-1.837-8.685-6.268-9.52-11.564-.835-5.297 1.273-10.636 5.5-13.934l12.598-9.827c3.315-2.586 8.098-1.994 10.683 1.321s1.994 8.098-1.321 10.683l-11.935 9.308 9.861 3.596c3.949 1.44 5.983 5.809 4.543 9.759-1.124 3.089-4.042 5.006-7.149 5.006z" fill="#c86f5c"/></g><path d="m213.306 227.904h-13.634c-5.746 0-10.163-5.083-9.362-10.773l3.491-24.786c.891-6.324 6.302-11.026 12.688-11.026 6.386 0 11.797 4.703 12.688 11.026l3.491 24.786c.802 5.69-3.616 10.773-9.362 10.773z" fill="#fb6672"/></g><g><path d="m203.762 225.377v98.018l231.214-28.912v-69.106z" fill="#ffcec0"/></g><path d="m243.641 270.177v-44.8h-39.879v98.018h.004v.002l231.206-28.913v-29.147l-172.392 21.558c-10.056 1.258-18.939-6.584-18.939-16.718z" fill="#fdb0a0"/><path d="m205.616 220.299h-93.817c-57.54 0-104.186 46.646-104.186 104.186v159.488c0 5.605 4.544 10.149 10.149 10.149h61.73v-89.545c0-27.878 20.106-51.691 47.589-56.364l79.795-9.978c5.082-.635 8.895-4.955 8.895-10.076v-97.705c0-5.608-4.547-10.155-10.155-10.155z" fill="#64b9fc"/><g><g><circle cx="458.679" cy="257.929" fill="#fdb0a0" r="53.318"/></g><g><path d="m512 257.931c0 29.445-23.871 53.316-53.316 53.316-9.791 0-18.975-2.646-26.861-7.247 25.756-3.771 45.521-25.948 45.521-52.748 0-19.654-10.633-36.824-26.465-46.058 2.544-.385 5.149-.578 7.805-.578 29.445-.001 53.316 23.87 53.316 53.315z" fill="#f9a08f"/></g></g></g><g><path d="m188.39 220.297v120.251l-15.223 1.898v-122.149z" fill="#31a7fb"/></g></g><g><path d="m388.927 195.564c-.504 0-1.016-.051-1.529-.155-4.119-.84-6.777-4.86-5.937-8.979l2.388-11.707-11.477-3.243c-3.299-.932-5.567-3.954-5.542-7.382l.088-11.768-11.708-.672c-3.245-.186-6.014-2.413-6.892-5.543l-5.193-18.511c-1.135-4.048 1.225-8.249 5.273-9.385 4.047-1.137 8.249 1.225 9.385 5.273l3.725 13.279 13.512.776c4.05.232 7.206 3.6 7.175 7.656l-.099 13.205 12.693 3.586c3.835 1.083 6.185 4.941 5.388 8.846l-3.8 18.632c-.736 3.606-3.908 6.092-7.45 6.092z" fill="#fee265"/></g><g><path d="m11.404 225.272c-3.543 0-6.715-2.486-7.45-6.092l-3.8-18.632c-.796-3.904 1.554-7.762 5.388-8.845l12.693-3.586-.099-13.204c-.03-4.056 3.125-7.423 7.175-7.656l13.513-.776 3.725-13.279c1.136-4.048 5.335-6.407 9.385-5.273 4.048 1.135 6.408 5.337 5.273 9.385l-5.193 18.511c-.878 3.13-3.647 5.357-6.892 5.543l-11.708.672.088 11.767c.025 3.428-2.243 6.45-5.542 7.382l-11.477 3.243 2.388 11.708c.84 4.119-1.818 8.139-5.937 8.979-.514.103-1.026.153-1.53.153z" fill="#fee265"/></g></g></svg>