<svg id="Capa_1" enable-background="new 0 0 512 512" height="512" viewBox="0 0 512 512" width="512" xmlns="http://www.w3.org/2000/svg"><g><path d="m436 241h-46.516c-3.505-31.163-17.545-59.03-38.5-79.984s-48.821-34.995-79.984-38.5v-46.516c0-8.291-6.709-15-15-15s-15 6.709-15 15v46.516c-25.908 2.915-49.429 12.984-68.796 28.477l-32.878-32.878c-5.859-5.859-15.352-5.859-21.211 0s-5.859 15.352 0 21.211l32.878 32.878c-15.493 19.367-25.562 42.888-28.477 68.796h-46.516c-8.291 0-15 6.709-15 15s6.709 15 15 15h46.516c3.506 31.163 17.545 59.031 38.5 79.984 20.953 20.955 48.821 34.993 79.984 38.5v46.516c0 8.291 6.709 15 15 15s15-6.709 15-15v-46.516c25.908-2.915 49.429-12.984 68.796-28.477l32.878 32.878c5.859 5.859 15.352 5.859 21.211 0s5.859-15.352 0-21.211l-32.878-32.878c15.493-19.367 25.562-42.889 28.477-68.796h46.516c8.291 0 15-6.709 15-15s-6.709-15-15-15z" fill="#c3ea21"/><path d="m241 436c0 8.291 6.709 15 15 15s15-6.709 15-15v-46.516c25.908-2.915 49.429-12.984 68.796-28.477l32.878 32.878c5.859 5.859 15.352 5.859 21.211 0s5.859-15.352 0-21.211l-32.878-32.878c15.493-19.367 25.562-42.889 28.477-68.796h46.516c8.291 0 15-6.709 15-15s-6.709-15-15-15h-46.516c-3.505-31.163-17.545-59.03-38.5-79.984l-189.968 189.968c20.953 20.955 48.821 34.993 79.984 38.5z" fill="#9cdd05"/><path d="m330.209 181.791c-19.014-19.014-45.264-30.791-74.209-30.791-57.891 0-105 47.109-105 105 0 28.945 11.777 55.195 30.791 74.209s45.264 30.791 74.209 30.791c57.891 0 105-47.109 105-105 0-28.945-11.777-55.195-30.791-74.209z" fill="#59c36a"/><path d="m361 256c0-28.945-11.777-55.195-30.791-74.209l-148.418 148.418c19.014 19.014 45.264 30.791 74.209 30.791 57.891 0 105-47.109 105-105z" fill="#00a66c"/><path d="m226 271c-24.814 0-45-20.186-45-45s20.186-45 45-45 45 20.186 45 45-20.186 45-45 45z" fill="#c3ea21"/><circle cx="255.999" cy="316.011" fill="#9cdd05" r="15"/><circle cx="315.999" cy="286.011" fill="#9cdd05" r="15"/><path d="m436.205 75.793c-46.077-46.117-109.72-75.793-180.205-75.793-140.61 0-256 115.39-256 256 0 70.093 29.557 133.931 75.795 180.207 46.077 46.117 109.72 75.793 180.205 75.793 140.61 0 256-115.39 256-256 0-70.093-29.557-133.931-75.795-180.207zm-406.205 180.207c0-124.072 101.928-226 226-226 56.646 0 108.322 22.2 147.916 56.873l-317.043 317.043c-34.673-39.594-56.873-91.27-56.873-147.916zm226 226c-56.646 0-108.322-22.2-147.916-56.873l317.043-317.043c34.673 39.594 56.873 91.27 56.873 147.916 0 124.072-101.928 226-226 226z" fill="#e72d5c"/><path d="m436.205 75.793-360.41 360.414c46.077 46.117 109.72 75.793 180.205 75.793 140.61 0 256-115.39 256-256 0-70.093-29.557-133.931-75.795-180.207zm-180.205 406.207c-56.646 0-108.322-22.2-147.916-56.873l317.043-317.043c34.673 39.594 56.873 91.27 56.873 147.916 0 124.072-101.928 226-226 226z" fill="#ce0c52"/></g></svg>