<svg id="Capa_1" enable-background="new 0 0 512 512" height="512" viewBox="0 0 512 512" width="512" xmlns="http://www.w3.org/2000/svg"><g><path d="m476.268 121h-220.268l-20.001 79.997 276.001-20.001z" fill="#895140"/><path d="m35.732 121-35.732 59.996 256 20.001v-79.997z" fill="#b2705b"/><path d="m512 180.996h-256l-20.001 105.004 20.001 105h256z" fill="#b2705b"/><path d="m0 180.996h256v210.004h-256z" fill="#ea9c62"/><path d="m482 210.998h-226l-20.001 75.002 20.001 75h226z" fill="#895140"/><path d="m30 210.998h226v150.002h-226z" fill="#b2705b"/><path d="m256 301h195.994v-30h-195.994l-10.001 15z" fill="#ffde55"/><path d="m60.006 271h195.994v30h-195.994z" fill="#ffeb99"/><path d="m90.006 241h30v90h-30z" fill="#ffde55"/><path d="m391.994 241h30v90h-30z" fill="#ffb655"/></g></svg>